<?xml version="1.0" standalone="no"?>
<!DOCTYPE svg PUBLIC "-//W3C//DTD SVG 20010904//EN"
 "http://www.w3.org/TR/2001/REC-SVG-20010904/DTD/svg10.dtd">
<svg version="1.0" xmlns="http://www.w3.org/2000/svg"
 width="900.000000pt" height="31.000000pt" viewBox="0 0 900.000000 129.000000"
 preserveAspectRatio="xMidYMid meet">
<metadata>
Created by potrace 1.10, written by Peter Selinger 2001-2011
</metadata>
<g transform="translate(0.000000,129.000000) scale(0.100000,-0.100000)"
fill="#000000" stroke="none">
<path d="M3407 1188 c-2 -7 -2 -36 1 -64 4 -49 3 -51 -36 -82 -22 -18 -46 -32
-54 -32 -7 0 -24 -8 -37 -17 -18 -12 -48 -17 -110 -18 -73 -1 -86 -4 -89 -18
-5 -23 13 -43 60 -73 46 -29 58 -30 105 -4 46 24 83 26 83 4 0 -14 -13 -31
-80 -103 -8 -9 -38 -46 -66 -81 -63 -79 -158 -170 -177 -170 -16 0 -47 -31
-47 -48 0 -14 56 -16 64 -3 3 5 20 12 38 15 37 7 146 96 203 166 21 25 39 47
41 49 10 11 44 -35 44 -59 0 -15 7 -33 14 -40 22 -17 36 -103 33 -207 -2 -95
7 -121 37 -110 14 5 16 31 16 170 0 126 4 173 15 198 15 34 36 70 45 79 12 12
47 68 65 105 23 45 32 55 58 55 13 0 17 -8 17 -34 0 -19 4 -46 10 -60 8 -22 5
-31 -18 -56 -15 -17 -47 -40 -72 -53 -74 -37 -64 -46 57 -49 l108 -3 3 -50 c4
-58 -23 -222 -46 -278 -9 -21 -24 -43 -34 -48 -29 -16 -21 -35 33 -81 29 -24
81 -70 116 -103 36 -33 68 -61 72 -63 4 -1 16 7 26 18 18 20 18 22 -10 75 -25
51 -59 88 -87 97 -15 5 -11 108 7 223 31 192 16 256 -65 270 -22 4 -40 12 -40
18 0 19 59 47 100 47 21 0 43 6 50 15 7 8 20 15 29 15 22 0 111 86 135 130 18
35 18 36 -3 70 -39 67 -108 84 -201 50 -19 -7 -39 -15 -45 -17 -5 -2 -30 -14
-54 -28 -50 -28 -83 -32 -101 -10 -7 8 -18 15 -26 15 -7 0 -29 9 -48 21 -32
19 -34 23 -24 42 6 12 15 25 21 28 17 11 -3 46 -41 73 -40 28 -87 34 -95 14z
m491 -231 c5 -24 -18 -49 -86 -93 -46 -31 -57 -35 -78 -25 -37 16 -32 68 8
101 50 39 150 50 156 17z m-363 -8 c6 -6 4 -19 -7 -37 -9 -15 -33 -58 -53 -97
-41 -78 -62 -105 -81 -105 -30 0 -27 90 5 140 59 94 84 121 105 114 11 -3 25
-10 31 -15z"/>
<path d="M380 1171 c-13 -26 -15 -22 24 -66 93 -104 21 -219 -133 -213 -66 3
-80 -4 -60 -28 42 -51 125 -78 168 -55 23 13 61 3 61 -16 0 -32 -86 -117 -150
-146 -8 -4 -28 -16 -45 -27 -16 -11 -37 -22 -45 -26 -8 -3 -22 -10 -30 -15 -8
-5 -22 -12 -30 -15 -8 -3 -29 -12 -47 -20 -17 -8 -40 -14 -51 -14 -24 0 -35
-28 -26 -64 5 -22 12 -26 45 -26 26 0 54 9 82 27 54 35 77 49 102 63 25 14 48
28 102 63 24 15 45 27 47 27 3 0 24 13 48 29 24 16 52 31 63 33 23 4 30 -20
12 -43 -14 -17 -164 -132 -187 -142 -46 -21 -97 -58 -109 -79 -12 -22 -12 -27
5 -46 18 -22 68 -30 78 -13 12 19 176 122 186 116 19 -11 10 -32 -32 -78 -48
-51 -150 -107 -197 -107 -39 0 -93 -45 -89 -74 4 -27 41 -33 74 -11 38 24 141
55 187 55 66 0 223 -49 340 -106 16 -8 37 -14 47 -14 10 0 21 -4 24 -9 4 -5
31 -17 61 -27 58 -18 72 -16 170 17 17 6 44 14 60 19 48 13 101 38 114 54 39
47 -35 66 -251 66 -93 0 -205 6 -262 15 -55 8 -114 15 -133 15 -45 0 -103 25
-103 44 0 9 20 44 45 78 54 72 58 111 13 116 -21 3 -28 9 -28 25 0 28 76 116
88 102 15 -16 34 -162 30 -233 -3 -62 -1 -67 18 -70 11 -2 27 4 34 13 7 8 19
15 27 15 14 0 82 48 108 75 38 41 43 40 99 -20 40 -43 58 -56 71 -51 15 5 17
14 11 53 -3 26 -13 54 -21 63 -8 9 -15 21 -15 27 0 6 -7 16 -15 23 -21 18 -20
99 3 130 13 19 17 45 17 111 0 80 -2 88 -25 107 -35 29 -108 46 -126 31 -19
-16 -18 -29 7 -55 23 -24 36 -95 25 -137 -5 -21 -13 -25 -58 -30 -30 -3 -75
-3 -102 0 -42 5 -49 10 -58 34 -12 34 -36 43 -73 29 -32 -12 -65 -5 -65 14 0
16 50 80 91 119 43 39 38 80 -10 87 -40 6 -48 18 -56 82 -5 41 -13 53 -49 83
-48 39 -90 46 -106 16z m407 -571 c12 -17 12 -24 -2 -49 -8 -17 -15 -36 -15
-44 0 -8 -9 -22 -19 -31 -25 -22 -59 -13 -65 17 -11 54 -14 141 -6 163 l10 24
41 -30 c23 -17 48 -39 56 -50z"/>
<path d="M2037 1155 c-27 -26 -20 -51 19 -75 21 -11 33 -25 28 -29 -5 -5 -54
-13 -109 -20 -141 -16 -147 -18 -143 -50 2 -21 11 -29 47 -40 40 -13 50 -12
107 6 54 18 65 19 75 7 21 -25 0 -39 -109 -70 -27 -8 -5 -29 29 -28 242 7 371
51 219 75 -29 4 -59 14 -67 21 -13 10 -13 13 3 25 12 9 41 11 105 6 91 -6 119
2 119 34 0 33 -42 52 -112 53 -64 0 -68 1 -68 23 0 53 -106 99 -143 62z"/>
<path d="M6987 1155 c-27 -26 -20 -51 19 -75 21 -12 33 -25 28 -29 -5 -5 -56
-14 -114 -21 -110 -12 -140 -22 -140 -45 0 -46 80 -64 162 -36 49 17 58 18 69
5 21 -25 0 -39 -109 -70 -27 -8 -5 -29 29 -28 242 7 371 51 219 75 -29 4 -59
14 -67 21 -13 10 -13 13 3 25 12 9 41 11 105 6 91 -6 119 2 119 34 0 33 -42
52 -112 53 -67 0 -68 0 -68 28 -1 51 -107 94 -143 57z"/>
<path d="M8323 1159 c-7 -7 -10 -30 -6 -60 6 -47 6 -47 -35 -68 -23 -12 -53
-21 -68 -21 -14 0 -48 -8 -75 -17 -43 -15 -49 -21 -49 -45 0 -37 35 -45 99
-24 61 20 61 20 61 0 0 -9 -43 -64 -95 -122 -62 -69 -95 -114 -95 -129 0 -36
37 -29 93 19 l50 42 37 -44 c35 -41 42 -44 81 -43 59 3 64 -4 34 -42 -28 -38
-43 -126 -31 -190 6 -32 10 -36 34 -33 l27 3 3 102 c3 97 4 104 31 130 31 32
120 65 177 67 36 1 40 -2 51 -34 7 -21 12 -94 12 -183 l1 -148 -35 -21 c-29
-16 -34 -24 -29 -42 13 -40 118 -166 155 -186 19 -11 24 -10 36 6 7 10 11 24
9 31 -3 6 -8 27 -11 47 -4 19 -20 47 -36 63 -33 32 -37 68 -14 133 20 55 19
131 -2 249 -19 112 -32 136 -80 152 -40 13 -112 -2 -152 -33 -48 -37 -75 -12
-46 44 25 50 55 147 55 181 0 21 -10 39 -36 63 -19 19 -39 34 -44 34 -4 0 -15
21 -24 46 -14 41 -47 84 -66 84 -3 0 -11 -5 -17 -11z m100 -235 c-2 -39 -11
-66 -39 -113 -46 -77 -82 -98 -123 -72 -19 12 -2 53 57 141 59 86 73 101 91
98 12 -3 16 -15 14 -54z"/>
<path d="M5226 1127 c-15 -11 -17 -17 -7 -35 6 -11 19 -23 30 -27 15 -4 19
-19 24 -83 10 -115 3 -131 -72 -162 -101 -41 -107 -80 -12 -80 51 0 59 -3 68
-23 17 -36 -14 -65 -117 -110 -19 -8 -52 -22 -73 -31 -21 -9 -49 -16 -62 -16
-35 0 -32 -25 7 -61 42 -38 75 -37 123 3 39 34 90 60 98 51 9 -9 -21 -54 -54
-81 -92 -75 -110 -104 -86 -136 13 -18 15 -18 48 5 18 13 39 29 46 35 22 21
102 56 113 49 35 -21 -20 -76 -121 -120 -67 -29 -119 -68 -119 -88 0 -37 78
-38 121 -1 20 18 89 18 131 0 51 -21 99 -37 138 -46 39 -9 87 -25 138 -46 18
-8 43 -14 56 -14 13 0 40 -7 59 -15 54 -23 193 -20 268 5 105 36 123 57 69 85
-22 11 -64 15 -173 15 -103 0 -157 4 -187 15 -23 8 -58 15 -77 15 -20 0 -56 7
-82 15 -78 25 -166 45 -194 45 -48 0 -29 30 56 88 78 55 110 116 64 127 -24 6
-107 -9 -138 -26 -28 -15 -40 -3 -27 26 11 25 60 62 138 103 25 13 63 41 85
62 22 21 51 40 65 42 15 2 33 16 45 35 15 25 26 32 45 30 21 -2 25 -8 28 -41
5 -55 -25 -116 -57 -116 -13 0 -29 7 -35 16 -16 21 -44 8 -50 -24 -3 -15 -7
-89 -8 -165 -3 -114 0 -139 12 -147 35 -23 45 -7 51 75 6 84 23 135 46 135 15
0 16 -4 17 -84 1 -72 19 -90 59 -60 36 26 40 41 17 64 -27 27 -25 53 6 87 l25
28 -23 8 c-43 16 -53 24 -56 42 -5 23 14 35 55 35 28 0 35 -5 48 -36 20 -49
20 -204 0 -243 -9 -18 -25 -30 -45 -34 -47 -10 -39 -38 19 -66 46 -22 51 -22
72 -7 46 32 63 179 37 325 -10 61 -38 111 -60 111 -16 0 -68 43 -68 57 0 15
32 33 60 33 24 0 74 26 102 53 22 21 23 46 1 92 -25 52 -73 60 -73 13 0 -26
-36 -102 -55 -118 -8 -7 -22 -9 -31 -6 -19 7 -14 58 13 143 l17 51 -28 36
c-22 29 -34 36 -62 36 -29 0 -34 -3 -34 -23 0 -13 7 -37 15 -53 13 -27 13 -36
-2 -80 -9 -28 -25 -57 -36 -64 -18 -11 -23 -9 -40 14 -10 14 -25 26 -33 26
-16 0 -44 -61 -44 -95 0 -41 -11 -55 -42 -55 -17 0 -53 -13 -80 -30 -62 -38
-78 -38 -78 -1 0 30 43 75 112 116 57 35 42 76 -35 99 -16 5 -18 13 -12 57 8
56 -9 100 -49 131 -33 24 -87 32 -110 15z"/>
<path d="M4706 1118 c-25 -83 -40 -128 -51 -153 -7 -16 -15 -39 -18 -50 -3
-11 -15 -45 -27 -75 -12 -30 -25 -70 -30 -89 -5 -18 -13 -38 -19 -44 -6 -6
-11 -20 -11 -32 0 -12 -7 -30 -15 -41 -8 -10 -15 -28 -15 -40 0 -11 -7 -29
-15 -40 -8 -10 -15 -28 -15 -40 0 -11 -7 -29 -15 -40 -8 -10 -15 -28 -15 -40
0 -11 -7 -29 -15 -40 -8 -10 -15 -27 -15 -37 0 -11 -6 -31 -14 -45 -63 -123
-68 -151 -31 -188 24 -24 28 -25 48 -11 12 8 25 27 28 43 4 16 17 54 29 84 12
30 25 66 30 80 5 14 18 50 30 80 12 30 25 66 30 80 5 14 18 50 30 80 12 30 25
66 30 80 5 14 18 50 30 80 12 30 24 66 27 80 3 14 12 34 19 45 8 11 14 27 14
36 0 10 6 30 14 46 62 127 65 146 31 178 -30 27 -63 33 -69 13z"/>
<path d="M8775 1105 c-51 -16 -153 -71 -182 -98 -21 -18 -23 -30 -23 -114 l0
-93 73 0 c72 0 142 17 207 50 26 13 36 25 38 46 1 16 7 55 13 87 14 80 6 110
-35 125 -38 14 -39 14 -91 -3z m42 -102 c8 -19 -70 -96 -129 -127 -30 -17 -39
-18 -52 -7 -21 17 -20 55 1 76 59 60 166 94 180 58z"/>
<path d="M2080 818 c-19 -6 -59 -12 -88 -15 -70 -6 -87 -29 -63 -81 38 -85 80
-122 138 -122 32 0 111 28 134 47 20 17 49 7 49 -17 0 -38 -59 -58 -201 -67
-60 -3 -78 -1 -88 11 -19 23 -34 20 -59 -13 -11 -16 -33 -31 -49 -34 -15 -2
-43 -10 -60 -16 -18 -6 -48 -16 -65 -22 -18 -6 -45 -14 -61 -16 -38 -7 -56
-42 -31 -61 28 -20 157 -11 209 15 22 12 52 24 68 27 23 5 27 3 27 -14 0 -11
-7 -32 -16 -45 -13 -20 -25 -25 -56 -25 -42 0 -78 -14 -78 -31 0 -17 43 -48
68 -49 18 0 22 -6 22 -31 0 -25 -14 -44 -81 -109 -88 -85 -96 -110 -38 -110
25 0 43 11 82 50 27 27 55 50 61 50 6 0 26 -23 45 -50 18 -28 39 -50 45 -50
14 0 55 43 77 80 14 23 28 69 44 143 4 19 11 27 22 25 12 -2 21 -23 31 -78 16
-90 30 -110 66 -91 15 9 35 11 53 6 15 -4 51 -9 80 -12 l52 -5 -2 65 c-1 50 2
70 16 84 25 29 21 80 -9 120 -24 32 -30 34 -68 30 -39 -4 -91 -19 -129 -38
-53 -27 -109 -40 -123 -28 -8 6 -14 17 -14 25 0 24 -31 44 -70 44 -21 0 -41 4
-44 9 -11 17 123 101 159 101 20 0 19 -46 0 -54 -21 -8 -19 -46 3 -46 9 0 49
19 87 42 66 39 74 42 150 42 61 1 87 -3 108 -16 36 -25 69 -22 96 6 l22 24
-33 33 c-27 26 -51 38 -109 52 -41 9 -83 17 -94 17 -11 1 -31 10 -45 21 -21
18 -25 29 -23 74 1 45 -2 56 -27 83 -27 30 -33 32 -92 31 -35 -1 -79 -6 -98
-11z m125 -62 c0 -10 -17 -32 -37 -49 -66 -53 -163 -48 -141 8 18 49 178 85
178 41z m-153 -418 c5 -15 -19 -102 -38 -138 -10 -19 -21 -25 -46 -25 -31 0
-33 2 -31 30 2 29 22 73 53 123 16 24 56 30 62 10z m292 -21 c18 -13 18 -15 1
-47 -38 -74 -94 -91 -106 -32 -9 47 -1 69 30 81 37 13 55 13 75 -2z"/>
<path d="M7030 818 c-19 -6 -59 -12 -88 -15 -54 -5 -91 -34 -73 -57 5 -6 12
-22 16 -36 19 -61 77 -110 132 -110 32 0 111 28 134 47 20 17 49 7 49 -17 0
-38 -59 -58 -201 -67 -60 -3 -78 -1 -88 11 -20 23 -35 20 -59 -14 -13 -16 -31
-30 -42 -30 -11 0 -34 -6 -52 -14 -50 -20 -134 -46 -151 -46 -9 0 -22 -10 -28
-22 -10 -18 -8 -24 7 -36 28 -20 157 -11 209 15 22 12 52 24 68 27 23 5 27 3
27 -14 0 -11 -7 -32 -16 -45 -13 -20 -25 -25 -56 -25 -42 0 -78 -14 -78 -31 0
-17 43 -48 66 -49 56 -1 35 -51 -59 -142 -86 -83 -94 -108 -36 -108 25 0 43
11 82 50 27 27 55 50 61 50 6 0 26 -23 45 -50 37 -56 51 -60 81 -27 44 46 61
86 85 200 4 19 11 27 22 25 13 -2 21 -23 31 -81 10 -58 19 -80 34 -88 14 -7
23 -7 34 1 8 8 26 10 46 5 18 -3 57 -9 87 -12 l54 -5 -7 49 c-5 38 -2 57 14
88 27 53 25 91 -6 132 -24 32 -30 34 -68 30 -22 -2 -66 -14 -96 -26 -118 -47
-141 -53 -156 -40 -8 6 -14 20 -14 30 0 23 -29 39 -74 39 -19 0 -37 4 -40 8
-11 18 126 102 165 102 15 0 10 -48 -6 -54 -21 -8 -19 -46 3 -46 9 0 49 19 87
42 66 39 74 42 150 42 61 1 87 -3 108 -16 36 -25 69 -22 96 6 l22 24 -33 33
c-27 26 -51 38 -109 52 -41 9 -83 17 -94 17 -11 1 -31 10 -45 21 -22 18 -25
28 -23 74 2 47 -1 57 -26 84 -27 29 -34 31 -93 30 -34 -1 -79 -6 -98 -11z
m125 -62 c0 -32 -68 -78 -123 -84 -39 -3 -50 -1 -55 12 -10 25 2 45 37 63 69
36 141 41 141 9z m-152 -420 c6 -15 -21 -107 -41 -144 -10 -18 -20 -22 -45
-20 -29 3 -32 6 -30 33 2 29 22 73 53 123 16 24 55 30 63 8z m291 -19 c18 -13
18 -15 1 -47 -38 -74 -94 -91 -106 -32 -9 47 -1 69 30 81 37 13 55 13 75 -2z"/>
<path d="M8509 611 c-42 -13 -70 -31 -64 -42 8 -12 152 -12 160 1 3 6 3 19 0
30 -7 21 -46 26 -96 11z"/>
<path d="M3593 593 c-8 -3 -13 -22 -13 -46 0 -103 -79 -253 -179 -342 -33 -29
-52 -40 -134 -80 -59 -29 -46 -50 29 -50 123 0 213 83 316 290 74 149 82 180
51 207 -21 17 -52 27 -70 21z"/>
<path d="M8510 515 c-14 -8 -33 -14 -42 -15 -23 0 -25 -52 -3 -70 22 -18 18
-46 -7 -62 -30 -19 -114 -42 -130 -36 -7 3 -23 2 -35 -3 -32 -12 -31 -54 2
-75 23 -15 27 -15 71 10 29 16 51 23 57 17 18 -18 -12 -47 -82 -81 -38 -19
-70 -40 -71 -46 0 -12 32 -44 45 -44 5 0 28 9 52 21 56 27 136 100 190 172 35
48 41 62 33 78 -6 11 -21 19 -35 19 -39 0 -39 19 0 54 34 28 37 34 26 54 -13
25 -35 27 -71 7z"/>
</g>
</svg>
